<?xml version="1.0" encoding="UTF-8" standalone="no"?>
<!-- Generator: Adobe Illustrator 21.0.0, SVG Export Plug-In . SVG Version: 6.00 Build 0)  -->

<svg
   xmlns:dc="http://purl.org/dc/elements/1.1/"
   xmlns:cc="http://creativecommons.org/ns#"
   xmlns:rdf="http://www.w3.org/1999/02/22-rdf-syntax-ns#"
   xmlns:svg="http://www.w3.org/2000/svg"
   xmlns="http://www.w3.org/2000/svg"
   xmlns:sodipodi="http://sodipodi.sourceforge.net/DTD/sodipodi-0.dtd"
   xmlns:inkscape="http://www.inkscape.org/namespaces/inkscape"
   version="1.1"
   id="Calque_1"
   x="0px"
   y="0px"
   viewBox="0 0 93.414983 49.999999"
   xml:space="preserve"
   inkscape:version="0.92.4 (5da689c313, 2019-01-14)"
   sodipodi:docname="logo.svg"
   width="93.414986"
   height="50"><metadata
     id="metadata19"><rdf:RDF><cc:Work
         rdf:about=""><dc:format>image/svg+xml</dc:format><dc:type
           rdf:resource="http://purl.org/dc/dcmitype/StillImage" /><dc:title></dc:title></cc:Work></rdf:RDF></metadata><defs
     id="defs17"><filter
       style="color-interpolation-filters:sRGB"
       inkscape:label="Drop Shadow"
       id="filter889"
       width="2"
       height="2"
       x="-0.40000001"
       y="-0.40000001"><feFlood
         flood-opacity="0.160784"
         flood-color="rgb(0,0,0)"
         result="flood"
         id="feFlood879" /><feComposite
         in="flood"
         in2="SourceGraphic"
         operator="in"
         result="composite1"
         id="feComposite881" /><feGaussianBlur
         in="composite1"
         stdDeviation="6"
         result="blur"
         id="feGaussianBlur883" /><feOffset
         dx="0"
         dy="3"
         result="offset"
         id="feOffset885" /><feComposite
         in="SourceGraphic"
         in2="offset"
         operator="over"
         result="composite2"
         id="feComposite887" /></filter></defs><sodipodi:namedview
     pagecolor="#ffffff"
     bordercolor="#666666"
     borderopacity="1"
     objecttolerance="10"
     gridtolerance="10"
     guidetolerance="10"
     inkscape:pageopacity="0"
     inkscape:pageshadow="2"
     inkscape:window-width="1920"
     inkscape:window-height="1009"
     id="namedview15"
     showgrid="false"
     fit-margin-top="0"
     fit-margin-left="0"
     fit-margin-right="0"
     fit-margin-bottom="0"
     inkscape:zoom="2.2425466"
     inkscape:cx="-174.03704"
     inkscape:cy="60.788247"
     inkscape:window-x="3832"
     inkscape:window-y="515"
     inkscape:window-maximized="1"
     inkscape:current-layer="Calque_1" /><style
     type="text/css"
     id="style3">
	.st0{fill:#80C342;}
</style><path
     d="M 9.3858795,20.407432 H 12.710535 L 22.00232,41.978483 H 17.611266 L 15.603926,37.04639 H 6.2494118 L 4.2969606,41.978483 H 0 Z m 4.8772065,13.345666 -3.324655,-8.774269 -3.379544,8.774269 z"
     id="path5"
     inkscape:connector-curvature="0"
     style="fill:#ffffff;fill-opacity:1;stroke-width:0.07841169" /><path
     d="m 23.844995,30.279458 h -2.767932 v -2.924756 h 2.775773 v -2.164164 c 0,-0.870367 0.09409,-1.709374 0.290124,-2.517008 0.196028,-0.799805 0.517517,-1.505505 0.972305,-2.117122 0.454788,-0.611606 1.058558,-1.089917 1.811309,-1.450613 0.752753,-0.352855 1.693693,-0.533203 2.830662,-0.533203 0.407741,0 0.744912,0.01572 1.019353,0.04706 0.27444,0.03134 0.556723,0.08626 0.839005,0.164657 l -0.243077,3.105104 c -0.20387,-0.06268 -0.423423,-0.109775 -0.658657,-0.148976 -0.235235,-0.0392 -0.486153,-0.06268 -0.744911,-0.06268 -0.525359,0 -0.956624,0.101987 -1.278112,0.305803 -0.321487,0.203869 -0.572404,0.470471 -0.744911,0.791965 -0.172505,0.321484 -0.290122,0.682179 -0.352852,1.066396 -0.06273,0.384216 -0.09409,0.760593 -0.09409,1.129129 v 2.375872 h 3.379544 v 2.924757 H 27.49898 v 11.699027 h -3.653985 z"
     id="path7"
     inkscape:connector-curvature="0"
     style="fill:#ffffff;fill-opacity:1;stroke-width:0.07841169" /><path
     d="m 36.234042,27.354702 v 2.038708 h 0.09409 c 0.180347,-0.282282 0.423424,-0.572405 0.713547,-0.870368 0.297964,-0.297973 0.658658,-0.556724 1.082081,-0.791964 0.423423,-0.23523 0.909576,-0.423418 1.450617,-0.580245 0.54104,-0.148987 1.14481,-0.22739 1.81131,-0.22739 1.035034,0 1.991657,0.196029 2.862026,0.595926 0.87037,0.392057 1.623123,0.940941 2.258257,1.63096 0.627293,0.69003 1.113446,1.505505 1.458457,2.438606 0.345012,0.9331 0.517517,1.936774 0.517517,3.01885 0,1.074236 -0.164664,2.08575 -0.501834,3.034531 -0.337171,0.940941 -0.815481,1.764266 -1.434934,2.469967 -0.619453,0.69787 -1.372205,1.262435 -2.258257,1.678012 -0.886052,0.415578 -1.88188,0.627298 -3.003168,0.627298 -1.035034,0 -1.983815,-0.21172 -2.846345,-0.642978 -0.862528,-0.423429 -1.529027,-1.003674 -1.999497,-1.732895 h -0.06273 V 50 H 32.721195 V 27.354702 Z m 8.531193,7.253083 c 0,-0.572405 -0.08625,-1.129129 -0.258759,-1.693693 -0.172506,-0.556724 -0.431264,-1.058556 -0.776276,-1.505505 -0.345012,-0.44695 -0.784117,-0.807635 -1.309475,-1.082077 -0.525358,-0.274442 -1.144811,-0.407748 -1.858357,-0.407748 -0.6665,0 -1.27027,0.141147 -1.795628,0.423429 -0.525358,0.282282 -0.980146,0.650818 -1.356522,1.097757 -0.376376,0.446949 -0.658658,0.956632 -0.854688,1.521196 -0.196029,0.572405 -0.290123,1.136969 -0.290123,1.709374 0,0.572405 0.09409,1.129129 0.290123,1.693693 0.19603,0.556714 0.478312,1.058556 0.854688,1.505505 0.376376,0.446939 0.831164,0.807635 1.356522,1.082077 0.525358,0.274442 1.129128,0.407737 1.795628,0.407737 0.713546,0 1.332999,-0.141136 1.858357,-0.423418 0.525358,-0.282282 0.964463,-0.650818 1.309475,-1.097767 0.345012,-0.44695 0.60377,-0.956622 0.776276,-1.521186 0.172505,-0.572405 0.258759,-1.136969 0.258759,-1.709374 z"
     id="path9"
     inkscape:connector-curvature="0"
     style="fill:#ffffff;fill-opacity:1;stroke-width:0.07841169" /><path
     d="m 59.561521,40.120123 h -0.09409 c -0.368535,0.650818 -0.956623,1.184021 -1.764263,1.599599 -0.815482,0.415588 -1.732899,0.627297 -2.775774,0.627297 -0.588089,0 -1.199699,-0.0784 -1.842675,-0.227389 -0.642976,-0.148987 -1.231064,-0.407748 -1.764263,-0.760604 -0.541041,-0.352844 -0.987988,-0.823315 -1.34084,-1.40356 -0.352853,-0.580255 -0.5332,-1.293796 -0.5332,-2.148483 0,-1.097767 0.305806,-1.968135 0.925258,-2.618953 0.619453,-0.650818 1.419252,-1.144809 2.391557,-1.489824 0.972305,-0.345005 2.054386,-0.572405 3.246244,-0.68218 1.191858,-0.109774 2.35235,-0.164667 3.48932,-0.164667 v -0.368536 c 0,-0.917409 -0.329329,-1.591748 -0.987987,-2.023017 -0.658659,-0.439109 -1.450616,-0.658659 -2.360192,-0.658659 -0.768435,0 -1.513346,0.164668 -2.226893,0.486151 -0.713545,0.321494 -1.301633,0.721392 -1.764262,1.191862 L 50.26974,29.252264 c 0.831164,-0.768434 1.795627,-1.348679 2.877708,-1.732895 1.089923,-0.384217 2.187686,-0.580245 3.308974,-0.580245 1.301634,0 2.368032,0.180348 3.214879,0.548884 0.839005,0.368536 1.505505,0.846846 1.999498,1.434932 0.486152,0.588085 0.831164,1.246743 1.019352,1.983815 0.19603,0.729232 0.290124,1.458453 0.290124,2.195525 v 8.899724 h -3.41091 v -1.881881 z m -0.06273,-4.814478 h -0.823322 c -0.588089,0 -1.207541,0.02348 -1.858358,0.0784 -0.650817,0.04706 -1.246746,0.164667 -1.795627,0.337175 -0.548882,0.172507 -1.003671,0.415578 -1.372206,0.729231 -0.368534,0.313644 -0.548881,0.744902 -0.548881,1.293786 0,0.345015 0.07841,0.635138 0.227394,0.870367 0.148982,0.235241 0.352853,0.423429 0.595928,0.564565 0.243077,0.141146 0.517518,0.243081 0.823324,0.305813 0.305805,0.06268 0.61161,0.09413 0.917417,0.09413 1.262428,0 2.211209,-0.337175 2.862026,-1.003674 0.650817,-0.666498 0.972305,-1.583918 0.972305,-2.744408 z"
     id="path11"
     inkscape:connector-curvature="0"
     style="fill:#ffffff;fill-opacity:1;stroke-width:0.07841169" /><path
     class="st0"
     d="m 67.940901,7.7022641 c -5.31887,0 -9.627828,4.3089599 -9.627828,9.6278299 0,5.31887 4.308958,9.62783 9.627828,9.62783 5.318871,0 9.627829,-4.30896 9.627829,-9.62783 V 7.7022641 Z"
     id="path13"
     inkscape:connector-curvature="0"
     style="fill:#84ad21;fill-opacity:1;stroke-width:0.07480831;filter:url(#filter889)"
     transform="scale(1.0481683)" /></svg>